<svg width="256" height="256" viewBox="0 0 256 256" fill="none" xmlns="http://www.w3.org/2000/svg">
<path d="M200 224H55.9922C53.8705 224 51.8356 223.157 50.3353 221.657C48.835 220.157 47.9922 218.122 47.9922 216V40C47.9922 37.8783 48.835 35.8434 50.3353 34.3431C51.8356 32.8429 53.8705 32 55.9922 32H152L208 88V216C208 217.051 207.793 218.091 207.391 219.061C206.989 220.032 206.4 220.914 205.657 221.657C204.914 222.4 204.032 222.989 203.061 223.391C202.091 223.793 201.051 224 200 224Z" stroke="#FF3B78" stroke-width="2" stroke-linecap="round" stroke-linejoin="round"/>
<path d="M152 32V88H208.008" stroke="#FF3B78" stroke-width="2" stroke-linecap="round" stroke-linejoin="round"/>
<path d="M146.688 169.875C152.245 169.875 156.75 165.37 156.75 159.812C156.75 154.255 152.245 149.75 146.688 149.75C141.13 149.75 136.625 154.255 136.625 159.812C136.625 165.37 141.13 169.875 146.688 169.875Z" stroke="#FF3B78" stroke-width="2" stroke-linecap="round" stroke-linejoin="round"/>
<path d="M100.688 181.375C106.245 181.375 110.75 176.87 110.75 171.312C110.75 165.755 106.245 161.25 100.688 161.25C95.1301 161.25 90.625 165.755 90.625 171.312C90.625 176.87 95.1301 181.375 100.688 181.375Z" stroke="#FF3B78" stroke-width="2" stroke-linecap="round" stroke-linejoin="round"/>
<path d="M110.75 171.312V121L156.75 109.5V159.812" stroke="#FF3B78" stroke-width="2" stroke-linecap="round" stroke-linejoin="round"/>
</svg>
