<svg width="28" height="28" viewBox="0 0 28 28" fill="none" xmlns="http://www.w3.org/2000/svg">
<path d="M11.375 14H23.6249" stroke="#00AAFF" stroke-width="2" stroke-linecap="round" stroke-linejoin="round"/>
<path d="M11.375 7H23.6249" stroke="#00AAFF" stroke-width="2" stroke-linecap="round" stroke-linejoin="round"/>
<path d="M11.375 21H23.625" stroke="#00AAFF" stroke-width="2" stroke-linecap="round" stroke-linejoin="round"/>
<path d="M4.375 6.5625L6.125 5.6875V11.8118" stroke="#00AAFF" stroke-width="2" stroke-linecap="round" stroke-linejoin="round"/>
<path d="M4.49533 16.6852C4.57848 16.4885 4.70185 16.3113 4.85752 16.1651C5.0132 16.0189 5.19773 15.9069 5.39928 15.8362C5.60082 15.7655 5.81492 15.7378 6.02781 15.7548C6.24071 15.7718 6.4477 15.8331 6.63549 15.9348C6.82328 16.0366 6.98772 16.1764 7.11824 16.3455C7.24876 16.5145 7.34248 16.709 7.39338 16.9164C7.44428 17.1239 7.45123 17.3396 7.41379 17.5499C7.37635 17.7602 7.29535 17.9603 7.17598 18.1374L4.375 21.875H7.4375" stroke="#00AAFF" stroke-width="2" stroke-linecap="round" stroke-linejoin="round"/>
</svg>
