<svg width="35" height="35" viewBox="0 0 35 35" fill="none" xmlns="http://www.w3.org/2000/svg">
<path fill-rule="evenodd" clip-rule="evenodd" d="M18.3985 2.91667H16.5974C15.583 2.91667 14.6105 3.31268 13.8949 4.01709C13.2607 4.64144 12.8728 5.46462 12.798 6.34055L12.7856 6.62347C12.7717 7.54472 12.0275 8.26342 11.114 8.26333C10.9068 8.26117 10.6916 8.21389 10.4936 8.12482L10.2993 8.02334C8.50434 7.01483 6.17062 7.63258 5.11755 9.42325L4.17067 10.9476C3.16384 12.659 3.66042 14.809 5.2857 15.9164L5.51174 16.0585C6.06883 16.3747 6.3873 16.9152 6.3873 17.5C6.3873 18.0379 6.11757 18.5408 5.66774 18.8458L5.51417 18.94C3.83033 19.8935 3.16687 21.9977 4.01328 23.7481L4.13698 23.9811L5.06643 25.5535C5.54953 26.408 6.37738 27.0516 7.35649 27.3243C8.22431 27.5659 9.15045 27.4991 9.97152 27.1373L10.2312 27.0102C10.6681 26.7627 11.1196 26.7034 11.5433 26.8145C11.967 26.9256 12.3278 27.1979 12.5456 27.5709C12.6657 27.7694 12.7362 27.9741 12.7613 28.1862L12.7737 28.4016C12.7716 30.4052 14.4844 32.0833 16.5974 32.0833H18.3989C20.394 32.0833 22.0499 30.5817 22.2119 28.6438L22.2237 28.3935C22.2226 27.9094 22.3974 27.4931 22.7102 27.1866C23.0231 26.8801 23.448 26.7088 23.8904 26.7109C24.0938 26.7165 24.3172 26.7663 24.5242 26.857L24.7227 26.9572C26.3974 27.9043 28.5918 27.4178 29.7221 25.8254L29.8671 25.604L30.829 24.034C31.3469 23.1632 31.4871 22.14 31.2257 21.1794C30.9939 20.3279 30.4626 19.585 29.7272 19.081L29.4837 18.9281C29.0606 18.6884 28.7816 18.3324 28.6679 17.9147C28.5542 17.497 28.6152 17.0522 28.8373 16.6786C28.9603 16.4683 29.1238 16.2933 29.32 16.1593L29.6952 15.9283C31.2146 14.9177 31.7837 12.9284 30.9839 11.256L30.9009 11.0932C30.883 11.0507 30.8622 11.0093 30.8386 10.9692L29.9445 9.44895C28.9495 7.75714 26.7982 7.10059 25.0045 7.92677L24.7656 8.04765C24.337 8.29337 23.8844 8.35548 23.4583 8.24708C23.0322 8.13869 22.6676 7.86869 22.4449 7.49663C22.3306 7.30795 22.2601 7.10325 22.235 6.89114L22.2226 6.67576C22.254 5.75996 21.864 4.77868 21.1433 4.05229C20.4226 3.3259 19.4325 2.91626 18.3985 2.91667ZM16.5974 5.02797H18.3989C18.8509 5.02779 19.2834 5.2067 19.5981 5.52394C19.9129 5.84118 20.0832 6.26973 20.0702 6.71198L20.0894 7.07956C20.1545 7.64145 20.3229 8.13028 20.5889 8.56942C21.0982 9.42034 21.9367 10.0413 22.9167 10.2906C23.8967 10.5399 24.9377 10.3971 25.8101 9.89357L25.9605 9.81847L26.1223 9.75495C26.8346 9.52079 27.6739 9.81716 28.0773 10.5031L28.9301 11.9544L28.9486 11.9952L29.0517 12.19C29.3968 12.9136 29.1084 13.829 28.3617 14.2569L28.1273 14.4015C27.6301 14.7399 27.2488 15.148 26.9713 15.6226C26.4645 16.4749 26.3243 17.4981 26.5857 18.4587C26.8234 19.3321 27.3753 20.0882 28.1345 20.591L28.5316 20.8369C28.8117 21.0301 29.0427 21.3532 29.1435 21.7234C29.2572 22.1411 29.1962 22.5859 28.9741 22.9594L28.0344 24.4937L27.9287 24.6556C27.4939 25.2668 26.636 25.4938 25.9128 25.1827L25.452 24.9522C24.938 24.7256 24.4353 24.6134 23.9244 24.6C22.8832 24.5948 21.906 24.9887 21.1864 25.6937C20.4669 26.3986 20.0649 27.3561 20.0698 28.353L20.0615 28.5121C19.9936 29.3159 19.27 29.9721 18.3989 29.9721H16.5974C15.7361 29.9721 15.027 29.3336 14.9363 28.5134L14.9069 27.9978C14.8418 27.4359 14.6734 26.9471 14.4074 26.5079C13.9129 25.6608 13.0792 25.0316 12.1003 24.775C11.1214 24.5183 10.0785 24.6554 9.20324 25.1558L9.0447 25.2318C8.72912 25.3698 8.32461 25.3989 7.94561 25.2934C7.518 25.1743 7.15645 24.8932 6.94096 24.5123L6.02331 22.9613L5.94122 22.8059C5.59361 22.085 5.88224 21.1696 6.63014 20.7457L6.85736 20.6057C7.92476 19.883 8.54224 18.7317 8.54224 17.5C8.54224 16.2501 7.90703 15.0889 6.85992 14.3952L6.47972 14.1593C5.8079 13.7006 5.59091 12.7611 6.02478 12.0233L6.97166 10.4989C7.44465 9.69524 8.46387 9.42545 9.26318 9.87418L9.54372 10.0191C10.0677 10.2564 10.5815 10.3693 11.1027 10.3746C13.1245 10.3748 14.7779 8.85337 14.9287 6.91471L14.9483 6.47008C14.9779 6.13582 15.1466 5.77788 15.4224 5.50643C15.7335 5.20016 16.1563 5.02797 16.5974 5.02797ZM17.5047 12.7339C14.8181 12.7339 12.6401 14.8678 12.6401 17.5C12.6401 20.1322 14.8181 22.2661 17.5047 22.2661C20.1914 22.2661 22.3694 20.1322 22.3694 17.5C22.3694 14.8678 20.1914 12.7339 17.5047 12.7339ZM17.5047 14.8452C19.0013 14.8452 20.2144 16.0338 20.2144 17.5C20.2144 18.9662 19.0013 20.1548 17.5047 20.1548C16.0082 20.1548 14.795 18.9662 14.795 17.5C14.795 16.0338 16.0082 14.8452 17.5047 14.8452Z" fill="#222222"/>
</svg>
