<svg width="28" height="28" viewBox="0 0 28 28" fill="none" xmlns="http://www.w3.org/2000/svg">
<path d="M7.34671 13.2534L20.5437 5.18856C20.6763 5.1075 20.8282 5.06324 20.9836 5.06033C21.139 5.05743 21.2924 5.09597 21.428 5.17201C21.5636 5.24805 21.6764 5.35883 21.755 5.49296C21.8336 5.62709 21.875 5.77973 21.875 5.93518V22.0648C21.875 22.2203 21.8336 22.3729 21.755 22.5071C21.6764 22.6412 21.5636 22.752 21.428 22.828C21.2924 22.904 21.139 22.9426 20.9836 22.9397C20.8282 22.9368 20.6763 22.8925 20.5437 22.8115L7.34671 14.7466C7.21881 14.6685 7.11313 14.5588 7.03981 14.428C6.96649 14.2973 6.92798 14.1499 6.92798 14C6.92798 13.8501 6.96649 13.7027 7.03981 13.572C7.11313 13.4413 7.21881 13.3315 7.34671 13.2534Z" stroke="#00AAFF" stroke-width="2" stroke-linecap="round" stroke-linejoin="round"/>
<path d="M6.125 4.375V23.625" stroke="#00AAFF" stroke-width="2" stroke-linecap="round" stroke-linejoin="round"/>
</svg>
