<svg width="28" height="28" viewBox="0 0 28 28" fill="none" xmlns="http://www.w3.org/2000/svg">
<path d="M20.6533 13.2534L7.45627 5.18856C7.32363 5.1075 7.17179 5.06324 7.01637 5.06033C6.86095 5.05743 6.70757 5.09597 6.57199 5.17201C6.43641 5.24805 6.32353 5.35883 6.24497 5.49296C6.16641 5.62709 6.125 5.77973 6.125 5.93518V22.0648C6.125 22.2203 6.16641 22.3729 6.24497 22.5071C6.32353 22.6412 6.43641 22.752 6.57199 22.828C6.70757 22.904 6.86095 22.9426 7.01637 22.9397C7.17179 22.9368 7.32363 22.8925 7.45627 22.8115L20.6533 14.7466C20.7812 14.6685 20.8868 14.5588 20.9602 14.428C21.0335 14.2973 21.072 14.1499 21.072 14C21.072 13.8501 21.0335 13.7027 20.9602 13.572C20.8868 13.4413 20.7812 13.3315 20.6533 13.2534V13.2534Z" stroke="#00AAFF" stroke-width="2" stroke-linecap="round" stroke-linejoin="round"/>
<path d="M21.875 4.375V23.625" stroke="#00AAFF" stroke-width="2" stroke-linecap="round" stroke-linejoin="round"/>
</svg>
