<svg width="256" height="256" viewBox="0 0 256 256" fill="none" xmlns="http://www.w3.org/2000/svg">
<path d="M200 224H55.9922C53.8705 224 51.8356 223.157 50.3353 221.657C48.835 220.157 47.9922 218.122 47.9922 216V40C47.9922 37.8783 48.835 35.8434 50.3353 34.3431C51.8356 32.8429 53.8705 32 55.9922 32H152L208 88V216C208 217.051 207.793 218.091 207.391 219.061C206.989 220.032 206.4 220.914 205.657 221.657C204.914 222.4 204.032 222.989 203.061 223.391C202.091 223.793 201.051 224 200 224Z" stroke="#00AAFF" stroke-width="2" stroke-linecap="round" stroke-linejoin="round"/>
<path d="M152 32V88H208.008" stroke="#00AAFF" stroke-width="2" stroke-linecap="round" stroke-linejoin="round"/>
<path d="M128 178.5C147.054 178.5 162.5 163.054 162.5 144C162.5 124.946 147.054 109.5 128 109.5C108.946 109.5 93.5 124.946 93.5 144C93.5 163.054 108.946 178.5 128 178.5Z" stroke="#00AAFF" stroke-width="2" stroke-linecap="round" stroke-linejoin="round"/>
<path d="M128 109.5L141.181 146.406" stroke="#00AAFF" stroke-width="2" stroke-linecap="round" stroke-linejoin="round"/>
<path d="M98.1221 126.75L136.674 133.788" stroke="#00AAFF" stroke-width="2" stroke-linecap="round" stroke-linejoin="round"/>
<path d="M98.1221 161.25L123.493 131.382" stroke="#00AAFF" stroke-width="2" stroke-linecap="round" stroke-linejoin="round"/>
<path d="M128 178.5L114.819 141.594" stroke="#00AAFF" stroke-width="2" stroke-linecap="round" stroke-linejoin="round"/>
<path d="M157.878 161.25L119.326 154.212" stroke="#00AAFF" stroke-width="2" stroke-linecap="round" stroke-linejoin="round"/>
<path d="M157.878 126.75L132.506 156.618" stroke="#00AAFF" stroke-width="2" stroke-linecap="round" stroke-linejoin="round"/>
</svg>
